<svg width="32" height="32" viewBox="0 0 32 32" fill="none" xmlns="http://www.w3.org/2000/svg">
<g clip-path="url(#clip0_54_50)">
<path d="M11.57 25.3735L11.6479 25.3847L11.6715 25.4057L11.7061 25.4589V25.501L11.742 25.6916L11.7977 25.8735L11.8398 25.9848L11.9326 26.2212L11.9882 26.3536L12.107 26.6271L12.1739 26.7706L12.4548 27.3584L12.6032 27.6343L12.7505 27.9053L12.8223 28.0266L12.9621 28.2592L13.0264 28.3558L13.2814 28.7084L13.4732 28.9522L13.5783 29.0759L14.0189 29.5734L14.2527 29.8073L14.7242 30.2602L14.9494 30.447L15.1709 30.6264L15.2749 30.7032L15.4766 30.8442L15.5681 30.8987L16.0111 31.1598L17.0196 30.3629L17.4169 30.0387L17.6544 29.8345L17.7522 29.7466L17.9316 29.5796L17.991 29.5177L18.0888 29.4088L18.0974 29.3841L18.2026 29.2566L18.3066 29.2145H18.3709L18.5058 29.2294L18.58 29.2578L18.7298 29.3296L18.8053 29.3865L18.9154 29.5016L18.9241 29.5858L18.8882 29.6476L18.8436 29.7145L18.809 29.7553L18.7323 29.8432L18.5664 30.0127L18.4947 30.082L18.3412 30.2317L18.2484 30.3208L17.8858 30.6537L17.6173 30.8863L17.48 30.9989L17.2077 31.2204L17.0815 31.3169L16.839 31.4976L16.74 31.5644L16.5432 31.6956L16.4529 31.7525L16.2772 31.8626L16.2042 31.9072L16.0668 31.9864L16.0198 32.0111L15.9394 32.0495H15.927L15.8131 31.9926L15.6696 31.9035L15.5731 31.8379L15.3627 31.6956L15.2402 31.609L14.9878 31.4295L14.8529 31.3305L14.2651 30.8715L13.8964 30.5534L13.7231 30.3889L13.3841 30.0548L13.2244 29.8815L12.9138 29.5301L12.7678 29.3482L12.4845 28.9782L12.3533 28.7864L12.0971 28.3978L11.9783 28.1949L11.7482 27.7853L11.643 27.5737L11.4376 27.1431L11.3448 26.9191L11.1975 26.5578L11.1196 26.3536L11.0899 26.2695L11.0367 26.1086L11.0193 26.043L10.9909 25.9205L10.9859 25.8698L10.9822 25.777L10.9884 25.7386L11.0082 25.6693L11.0268 25.6396L11.122 25.5381L11.2025 25.4961L11.4116 25.4032L11.5267 25.3723M14.7997 30.5646L14.7118 30.6005L14.6759 30.6537V30.6883L14.6896 30.7527L14.7118 30.7762L14.765 30.8121H14.7997L14.8875 30.7762L14.9234 30.7217V30.6883L14.8875 30.6005L14.8331 30.5646M6.92096 21.8073L7.02861 21.8196L7.1041 21.8394L7.34787 21.9075L7.45924 21.9459L7.4679 21.9545L7.47038 22.0201L7.46048 22.1104L7.45058 22.1735L7.42954 22.3121L7.41469 22.3938L7.38252 22.5633L7.36396 22.6561L7.2959 23.0868L7.26249 23.4085L7.25135 23.5817L7.22289 24.3032L7.22908 24.6732L7.25878 25.4107L7.29343 25.7435L7.33302 26.0665L7.35654 26.2113L7.40974 26.4885L7.44068 26.6048L7.60031 27.2334L7.63991 27.4067L7.65352 27.4722L7.67579 27.5873L7.67827 27.6158L7.73271 27.8101L7.79582 27.9412L7.83295 27.987L7.901 28.0872L7.95545 28.1825L7.98515 28.2394L8.10766 28.4882L8.15963 28.6156L8.2809 28.8767L8.35762 28.9856L8.40959 29.0153L8.52591 29.0611L8.61377 29.0698L8.81176 29.0797H8.95777L9.2696 29.0599L9.52699 29.0289L9.66929 29.0067L10.2645 28.9002L10.5318 28.8322L10.9092 28.7381L11.1319 28.6862L11.2223 28.6664L11.3856 28.6317L11.4388 28.623L11.5205 28.6107L11.5242 28.6156L11.5848 28.7208L11.6554 28.8507L11.6962 28.9287L11.763 29.0883L11.7692 29.165L11.7482 29.1972L11.6863 29.2603L11.6244 29.2925L11.4809 29.3618L11.372 29.4076L11.1159 29.4979L10.8944 29.5635L10.7669 29.5957L10.2286 29.7256L9.9737 29.7714L9.41315 29.8642L9.17556 29.8914L8.9454 29.9149L8.84269 29.9223L8.64346 29.9335L8.55561 29.9347L8.38731 29.9323L8.31555 29.9273L8.18066 29.9125L8.12498 29.9013L8.02475 29.8741L7.98639 29.8555L7.91957 29.8159L7.89977 29.7912L7.6993 29.493L7.56071 29.2418L7.49142 29.0957L7.35158 28.7901L7.28229 28.6218L7.14617 28.2753L7.08059 28.0922L6.83063 27.3349L6.73039 26.95L6.63387 26.5664L6.59551 26.3808L6.52374 26.0133L6.49776 25.8413L6.45073 25.4193L6.4297 25.1149L6.42351 24.9553L6.41361 24.2957L6.42722 23.9641L6.46558 23.307L6.50147 23.0101L6.54107 22.7217L6.56458 22.5906L6.61408 22.3406L6.64377 22.2342L6.72297 21.9768L6.77247 21.8704L6.8034 21.8432L6.8727 21.806M25.256 26.1185L25.35 26.137L25.3723 26.1593L25.4032 26.215L25.4008 26.262L25.3847 26.3697L25.3661 26.4501L25.1619 27.1852L24.9912 27.7185L24.8984 27.9808L24.7078 28.4931L24.615 28.7146L24.5234 28.9275L24.4814 29.0203L24.396 29.196L24.3576 29.2653L24.2797 29.4076L24.2462 29.467L24.1819 29.5759L24.1534 29.6192L24.0433 29.7652L23.9814 29.8048L23.8515 29.8679L23.7587 29.8815L23.5521 29.8988L23.3998 29.9038L22.6203 29.8741L22.0721 29.8036L21.7875 29.7442L21.2133 29.6118L20.9225 29.5227L20.3372 29.3321L20.0452 29.217L19.4636 28.9745L19.179 28.8359L18.6147 28.5476L18.3449 28.3879L17.8116 28.0575L17.5616 27.8806L17.0753 27.5155L16.8538 27.3225L16.37 26.9018L16.589 26.5689L16.8068 26.236L17.1335 26.4885L17.3092 26.6246L17.4602 26.7434L17.5456 26.8114L17.9081 27.0985L18.0789 27.2346L18.5825 27.5935L18.9599 27.8237L19.1641 27.9326L19.5824 28.1466L19.8002 28.2444L20.2432 28.435L20.4684 28.5191L20.9188 28.6812L21.1428 28.7493L21.587 28.8767L21.8023 28.925L22.2243 29.0116L22.4223 29.0376L22.8071 29.0772H22.9791L23.5483 29.0797L23.9258 28.2444L24.2351 27.4636L24.3267 27.1975L24.3638 27.0775L24.4306 26.8486L24.4517 26.7595L24.4999 26.5516L24.5296 26.4377L24.5432 26.3932L24.6014 26.241L24.6373 26.1989L24.7202 26.1346L24.7821 26.1234L24.9207 26.1098H25.0234M17.277 23.1115L17.3859 23.2501L17.4268 23.3392L17.4874 23.5434L17.4862 23.6894L17.4589 23.7859L17.4268 23.8874L17.402 23.948L17.3488 24.0755L17.3142 24.1522L17.2374 24.3143L17.1904 24.4096L17.0889 24.6125L17.0283 24.7313L16.7115 25.3055L16.4925 25.6458L16.3663 25.8116L16.1002 26.1445L15.9369 26.3264L15.7661 26.5107L15.4741 26.8139L15.3627 26.9241L15.0286 27.2594L14.8875 27.398L14.6227 27.6541L14.5138 27.7556L14.3084 27.94L14.2255 28.0068L14.0684 28.1256L14.0053 28.1615L13.8877 28.2209L13.8394 28.2295L13.7479 28.2357L13.7095 28.2209L13.6353 28.1788L13.6006 28.1417L13.5326 28.06L13.4967 28.0043L13.3804 27.8138L13.3482 27.7247L13.3568 27.6875L13.3927 27.6183L13.4385 27.5774L13.5511 27.492L13.639 27.4314L13.8518 27.2606L14.0498 27.0862L14.1661 26.9785L14.4111 26.7483L14.5423 26.6221L14.8059 26.3647L14.9358 26.2336L15.4209 25.7151L15.6832 25.402L15.7946 25.2449L16.0099 24.9256L16.1101 24.7474L16.3118 24.3749L16.4207 24.151L16.6447 23.7117L16.7882 23.4543L16.8514 23.3516L16.9714 23.166L17.0184 23.1078L17.1013 23.0187H17.1223M20.6032 21.5573L20.6862 21.5709L20.7381 21.5882L20.8495 21.6266L20.9163 21.6526L21.0995 21.7454L21.1403 21.7899L21.1564 21.8221L21.1836 21.8939L21.1947 21.9434L21.2121 22.0535L21.217 22.1278L21.2269 22.2886L21.2294 22.3926L21.2331 22.6178V22.7576L21.2343 23.0583V23.2415L21.1898 24.3465L21.1155 25.0357L21.0549 25.3599L20.9188 25.996L20.8272 26.2954L20.6268 26.8845L20.503 27.1654L20.3805 27.4227L20.3224 27.5069L20.2073 27.6479L20.1454 27.6789L20.0204 27.7135L19.9486 27.6925L19.7964 27.6281L19.7049 27.5613L19.5947 27.4574L19.5613 27.3807L19.5675 27.3237L19.596 27.1938L19.6343 27.0948L19.6764 26.9884L19.7036 26.9241L19.763 26.7867L19.8002 26.7038L20.1268 25.7992L20.2927 25.1545L20.3471 24.8179L20.4387 24.1374L20.4548 23.7896L20.4696 23.0905L20.4461 22.7415L20.4201 22.322L20.409 22.0956V22.0077L20.4102 21.8456L20.4164 21.785L20.4325 21.6786L20.4473 21.6439L20.482 21.5858L20.508 21.5722L20.5649 21.5536M13.3247 22.6265L13.3841 22.6487L13.4063 22.6784L13.5499 22.9111L13.5981 23.0509V23.1165L13.5796 23.2439L13.5474 23.3058L13.4645 23.4283L13.3989 23.4889L13.0871 23.7426L12.8334 23.9196L12.6874 24.0099L12.3842 24.1893L12.2184 24.2797L11.8793 24.4578L11.6999 24.5432L10.9674 24.8773L10.5986 25.0159L10.2311 25.1483L10.0541 25.204L9.70394 25.3092L9.5406 25.3488L9.39087 25.3834L9.30302 25.402L9.11988 25.4379L9.02336 25.4565L8.63109 25.5258L8.47394 25.5468L8.16087 25.5814L8.02351 25.5827L7.97896 25.5691L7.90595 25.5307L7.88244 25.4936L7.84285 25.407L7.82552 25.3414L7.7587 25.0271V24.8897L7.78592 24.8476L7.86017 24.7821L7.9307 24.7672L8.09528 24.7486H8.21779L8.72761 24.7078L9.10503 24.6435L9.30796 24.594L9.72003 24.4851L9.93287 24.417L10.361 24.271L10.5751 24.1869L11.0032 24.0111L11.2099 23.9146L11.6183 23.7154L11.8088 23.6102L12.18 23.3949L12.3459 23.2835L12.6626 23.0596L12.7951 22.9469L13.0339 22.7551L13.1589 22.671L13.2059 22.65L13.2925 22.6215M29.1749 20.1998L29.2145 20.2432L29.2343 20.2766L29.3197 20.4399L29.3655 20.5599L29.4546 20.821L29.4992 20.977L29.587 21.3061L29.6278 21.4843L29.7788 22.2305L29.8246 22.5856L29.8642 22.9346L29.8729 23.0892L29.8828 23.3838L29.8753 23.5013L29.837 23.8169L29.7887 23.9666L29.738 24.0285L29.6155 24.1473L29.5115 24.2128L29.3989 24.2821L29.3296 24.3205L29.1811 24.4034L29.092 24.4529L28.7159 24.636L28.409 24.7684L28.2407 24.834L27.8979 24.964L27.7271 25.0234L27.3893 25.1372L27.2359 25.1817L26.804 25.2968L26.5763 25.3439L26.1172 25.4305L25.8809 25.4626L24.9256 25.5641L24.4591 25.5703L23.995 25.5691L23.7723 25.5567L23.3343 25.5258L23.1301 25.4998L22.7316 25.4391L22.551 25.3971L22.2045 25.3067L22.056 25.2498L21.9075 25.1768L21.832 25.1186L21.806 25.084L21.7602 25.0097L21.7479 24.9664L21.7293 24.8749V24.8204L21.7565 24.5754L21.8122 24.4814L21.8729 24.464L21.9384 24.4529L21.9817 24.4541L22.0758 24.4616L22.1352 24.4715L22.2614 24.4962L22.3381 24.5148L22.5002 24.5556L22.598 24.5816L22.9952 24.6633L23.2959 24.6991L23.4729 24.709L23.8466 24.7239H24.0693L24.5408 24.7177L24.8229 24.7066L25.3698 24.6806L25.7002 24.6571L25.8512 24.641L26.4266 24.568L26.6939 24.5073L27.2235 24.3712L27.5056 24.271L27.794 24.1658L27.9486 24.1039L28.2679 23.974L28.4424 23.8973L29.0302 23.6436L29.0227 22.9284L29.0029 22.5819L28.9732 22.3121L28.9522 22.1686L28.9064 21.879L28.8792 21.7404L28.8223 21.467L28.7913 21.3482L28.7233 21.0821L28.6874 20.9336L28.6738 20.873L28.6329 20.6626L28.6317 20.5946L28.6404 20.477L28.6639 20.4374L28.7208 20.3669L28.7666 20.331L28.9534 20.2221L29.0784 20.1751L29.1193 20.1739M5.25414 16.5098L5.39273 16.5816L5.45708 16.6274L5.57092 16.74L5.59072 16.8241L5.56473 16.8872L5.53256 16.9553L5.50657 16.9974L5.44594 17.0877L5.4051 17.1434L5.31477 17.2647L5.25785 17.3377L5.13534 17.4936L5.0611 17.5864L4.5092 18.3486L4.17138 18.882L4.02165 19.1555L3.73581 19.7073L3.61454 19.9845L3.38685 20.5377L3.29899 20.8087L3.08244 21.639L2.97355 22.2193L2.94261 22.4854L2.91539 22.7465L2.90796 22.864L2.89807 23.0892L2.90054 23.1845L2.9092 23.3615L2.92158 23.4271L2.95128 23.5421L2.97355 23.5706L3.08616 23.6647L3.20371 23.7389L3.28167 23.7797L3.44749 23.8626L3.54401 23.9072L3.74571 23.9963L3.85584 24.0421L4.3174 24.2215L4.55623 24.3007L5.0314 24.4492L5.24053 24.4974L5.59319 24.5903L5.74416 24.6472L5.78871 24.6806L5.858 24.7548L5.87285 24.8056L5.89018 24.9207V25.0011L5.88028 25.1916L5.86295 25.2659L5.82336 25.3933L5.79737 25.4094L5.66991 25.4156L5.52142 25.3933L5.42243 25.3698L5.20711 25.3179L5.0809 25.282L4.81732 25.2053L4.67378 25.1595L4.07363 24.9602L3.77046 24.8464L3.47224 24.7313L3.33117 24.6732L3.05646 24.5581L2.93395 24.5012L2.02073 24.078L2.09621 22.9593L2.21872 21.9087L2.35236 21.2331L2.4464 20.9015L2.65305 20.2432L2.78546 19.914L3.07007 19.2557L3.24331 18.9203L3.72343 18.0962L4.09219 17.5456L4.27285 17.3055L4.45228 17.0741L4.53519 16.9726L4.69853 16.7833L4.7703 16.709L4.90642 16.5742L4.96087 16.5333L5.0611 16.4677L5.09327 16.4665M14.7551 18.1049L14.7663 18.1927L14.7601 18.3103L14.7527 18.392L14.7329 18.5677L14.718 18.6716L14.6858 18.8869L14.666 19.002L14.5732 19.9425L14.577 20.6032L14.6104 20.9411L14.697 21.6217L14.77 21.9632L14.9383 22.6413L15.0521 22.9729L15.2031 23.4172L15.2971 23.6981L15.3367 23.8206L15.4122 24.0507L15.4394 24.1361L15.4852 24.2858L15.4951 24.3205L15.5063 24.4888L15.4766 24.5853L15.3937 24.7808L15.3231 24.8674L15.0855 25.1619L14.6908 24.3279L14.3456 23.5149L14.1661 22.9915L14.0993 22.7279L13.9793 22.1933L13.9372 21.91L13.8654 21.3284L13.8444 21.0054L13.8085 20.5847L13.7788 20.3384L13.7627 20.2407L13.7293 20.0625L13.712 20.008L13.6786 19.9227H13.6625L13.5895 19.9375L13.5165 19.9623L13.4719 19.9796L13.2764 20.0637L13.1737 20.1169L12.8903 20.2382L12.8161 20.258L12.7901 20.2605L12.7456 20.2617L12.7381 20.2531L12.7344 20.1924L12.7505 20.1194L12.7678 20.0712L12.8557 19.8484L12.9225 19.7172L13.0599 19.5155L13.1997 19.3522L13.2851 19.2606L13.6674 18.8795L13.8753 18.6976L14.0807 18.5194L14.1785 18.4415L14.3666 18.2954L14.4458 18.2398L14.5955 18.1432L14.6487 18.1185L14.7391 18.0888M15.9889 18.5231L16.047 18.5949L16.1077 18.6988L16.146 18.7718L16.2252 18.9327L16.2698 19.0292L16.3601 19.2297L16.4059 19.3386L16.6719 19.9053L16.8749 20.2828L16.9875 20.4684L17.4664 21.2022L17.7374 21.5425L18.0133 21.8766L18.1568 22.0337L18.4452 22.3418L18.5937 22.4829L18.8906 22.7564L19.0416 22.8776L19.3423 23.1103L19.492 23.2093L19.7284 23.3813L19.8323 23.479L19.8608 23.5273L19.9053 23.6251L19.9103 23.682V23.8057L19.8991 23.8849L19.8546 24.078L19.82 24.1435L19.7828 24.2017L19.763 24.2203L19.7234 24.2475L19.7049 24.2462L19.5848 24.2203L19.4908 24.1831L19.4363 24.1559L19.205 24.0223L19.0701 23.9245L18.7879 23.7104L18.6345 23.5805L18.3202 23.307L18.1593 23.1536L17.5072 22.5052L17.2139 22.1636L16.9281 21.8234L16.8031 21.6575L16.5667 21.3333L16.4739 21.1836L16.2883 20.8854L16.177 20.7121L16.1312 20.6428L16.0458 20.5166L16.0186 20.4783L15.9728 20.4176H15.9678L15.9332 20.4523L15.8923 20.5055L15.8651 20.5451L15.7389 20.7319L15.6659 20.8507L15.5471 21.0326L15.4778 21.1267L15.4469 21.1613L15.3887 21.2207L15.364 21.2368L15.3157 21.2616L15.2959 21.2603L15.2575 21.2492L15.2427 21.2294L15.213 21.1836L15.2006 21.1465L15.1783 21.0636L15.1697 21.0104L15.1536 20.8916L15.1474 20.8198L15.1647 20.5872L15.2056 20.3805L15.2365 20.2605L15.3887 19.742L15.484 19.4797L15.5817 19.2223L15.6312 19.106L15.729 18.8832L15.7735 18.7954L15.8614 18.6357L15.8985 18.5875L15.9653 18.5169M23.1969 18.4365L23.2872 18.4712L23.463 18.564L23.5483 18.6456L23.7203 18.8325L23.8107 18.9636L24.344 19.8299L24.6472 20.4176L24.7722 20.7183L25.0048 21.3247L25.0964 21.634L25.2609 22.2614L25.3179 22.5831L25.4206 23.1251L25.4565 23.2984L25.4725 23.3726L25.5022 23.5125L25.5146 23.5619L25.5456 23.7414V23.8391L25.5344 23.88L25.5047 23.9567L25.4787 23.9901L25.4181 24.0557L25.3748 24.0879L25.2337 24.1794L25.1681 24.2054L25.0419 24.2462L24.9875 24.2475L24.886 24.2363L24.8489 24.2116L24.7833 24.1497L24.7672 24.099L24.7437 23.9864L24.7239 23.8676L24.714 23.7933L24.6707 23.4592L24.6509 23.2749L24.563 22.7267L24.4727 22.3369L24.4145 22.134L24.1435 21.3111L23.9678 20.9077L23.7884 20.508L23.6919 20.3174L23.4951 19.9449L23.3924 19.7742L23.1858 19.445L23.0806 19.3002L22.8702 19.028L22.765 18.9179L22.6104 18.7459L22.5534 18.6654L22.546 18.637L22.5448 18.5862L22.5646 18.5677L22.6153 18.533L22.6599 18.5157L22.9989 18.4316M13.6439 17.2152L13.738 17.2275L13.7615 17.2449L13.7899 17.2869L13.7825 17.3203L13.7541 17.3958L13.7194 17.4478L13.639 17.5616L13.5808 17.6346L13.4546 17.7918L13.3754 17.8883L13.0005 18.4006L12.7604 18.778L12.6466 18.981L12.4238 19.3955L12.3211 19.6096L12.1231 20.0439L12.0353 20.263L11.867 20.7022L11.7964 20.9176L11.6653 21.3469L11.6145 21.5511L11.5254 21.9545L11.4995 22.1414L11.4586 22.5039V22.6648L11.445 22.9111L11.4178 23.0348L11.3906 23.0818L11.3287 23.1697L11.2804 23.208L11.1703 23.2823L11.0936 23.3219L10.8919 23.4221L10.8102 23.4555L10.7335 23.4865L10.705 23.4964L10.6555 23.5112H10.6432L10.6073 23.4444L10.5974 23.3392L10.5986 23.2613L10.606 23.088L10.637 22.7576L10.6531 22.6302L10.7298 22.0906L10.7842 21.8011L10.8993 21.2195L10.9661 20.9547L11.0936 20.5142L11.2 20.1937L11.2582 20.0328L11.3782 19.7148L11.4388 19.5688L11.5589 19.2903L11.6145 19.1802L11.8695 18.6667L11.909 18.585L11.9833 18.434L12.0093 18.3821L12.0514 18.2954L12.0563 18.2831L12.034 18.2472L11.9808 18.2261L11.94 18.2175L11.737 18.1903H11.5997L11.2309 18.1618L11.1369 18.142L11.1047 18.1309L11.0503 18.1073L11.0416 18.0937L11.0391 18.0046L11.08 17.9366L11.1183 17.9007L11.2087 17.8277L11.2693 17.7893L11.4005 17.7138L11.4784 17.6767L11.82 17.5307L12.0179 17.4701L12.4288 17.3599L12.6367 17.3302L13.092 17.2647L13.3333 17.2325L13.4249 17.2238L13.5895 17.2127M17.2758 18.1271L17.381 18.1853L17.4515 18.2323L17.605 18.3387L17.694 18.4056L17.8797 18.5479L17.9787 18.6295L18.4464 18.9797L18.7805 19.1988L18.9575 19.3015L19.6888 19.6913L20.0811 19.8521L20.8829 20.1491L21.2974 20.258L22.1327 20.4473L22.5522 20.4968L22.8776 20.5476L23.036 20.5896L23.0942 20.6181L23.1957 20.6812L23.234 20.7245L23.3021 20.821L23.3305 20.8854L23.3949 21.0586L23.4023 21.1292V21.2566L23.3751 21.2789L23.239 21.3135L23.0831 21.3197L22.9791 21.3148L22.7564 21.3024L22.6265 21.29L22.3567 21.2603L22.2119 21.2418L21.6118 21.1502L21.3247 21.092L21.0425 21.0314L20.9151 20.9992L20.6701 20.9336L20.5698 20.9002L20.2172 20.7728L19.9548 20.6713L19.82 20.6156L19.5502 20.5018L19.424 20.4461L19.1802 20.3347L19.08 20.2852L18.7879 20.1442L18.6085 20.0625L18.533 20.0291L18.392 19.9697L18.3425 19.9511L18.2596 19.9227H18.2447L18.2039 19.9548L18.1804 20.0068L18.1717 20.0439L18.1408 20.2221V20.3347L18.1346 20.5302L18.1247 20.6342L18.1172 20.675L18.0974 20.7468L18.0851 20.7703L18.0578 20.8087L18.0405 20.8148L18.0034 20.821L17.9811 20.8124L17.9329 20.7852L17.9056 20.7592L17.8475 20.701L17.8153 20.6589L17.746 20.5674L17.7077 20.5092L17.6062 20.3026L17.5344 20.1095L17.4985 19.9932L17.3575 19.4858L17.3005 19.2186L17.2461 18.9525L17.2251 18.8288L17.1879 18.5899L17.178 18.4885L17.1619 18.3004L17.1644 18.2348L17.1768 18.1234L17.1941 18.1049M4.6181 19.5799L4.74184 19.6244L4.82722 19.6566L5.11802 19.7705L5.34076 19.8608L5.45955 19.9103L6.36411 20.2221L6.98531 20.3743L7.30704 20.4226L7.95793 20.5005L8.29451 20.5129L8.97757 20.5179L9.33272 20.4931L10.4872 20.4114L10.4006 20.6923L10.3041 20.9374L10.2249 21.0871L10.1915 21.1292L10.1234 21.1799L10.0517 21.1985L9.88213 21.2331L9.75592 21.2455L9.47378 21.2665L9.28569 21.2715L9.09141 21.2752L8.98128 21.2764L8.75483 21.2776L8.62862 21.2764L7.59783 21.2343L6.95932 21.1663L6.65986 21.1118L6.07084 20.9893L5.78995 20.9064L5.23558 20.7258L4.96458 20.6119L4.72204 20.5067L4.58716 20.4436L4.53271 20.4152L4.35081 20.3038L4.30379 20.2506L4.2382 20.1404L4.24068 20.0761L4.2679 19.94L4.30874 19.8509L4.42753 19.6393L4.4993 19.5514H4.52034M29.5783 13.0351L29.6278 13.0623L29.7404 13.1279L29.8221 13.1811L30.0696 13.3878L30.2738 13.592L30.3876 13.7182L30.624 13.983L30.7465 14.129L30.9927 14.4272L31.1115 14.5794L31.3466 14.8851L31.4518 15.0311L31.6535 15.3145L31.7352 15.4394L31.8824 15.6746L31.9282 15.7649L31.9691 15.849L31.9814 15.8824L32 15.9443V15.9654L31.9579 16.099L31.8923 16.2302L31.8428 16.3118L31.7352 16.4863L31.6684 16.5865L31.5273 16.7907L31.4469 16.9008L31.1053 17.355L30.921 17.5802L30.5485 18.0195L30.3753 18.1977L29.4447 19.0763L28.8186 19.5787L28.4993 19.7927L27.8558 20.1937L27.523 20.3595L26.8486 20.6664L26.4971 20.7876L26.2868 20.8606L26.0418 20.9423L25.9787 20.9609L25.8636 20.9943L25.8178 21.0029L25.7361 21.0141L25.7052 21.0116L25.6025 20.9794L25.5666 20.9299L25.4998 20.8062L25.4552 20.7072L25.3884 20.4795L25.3946 20.357L25.423 20.3125L25.4961 20.232L25.5579 20.2085L25.6965 20.1726H25.7906L25.9514 20.1355L26.1148 20.0786L26.2162 20.0365L26.434 19.9449L26.5553 19.8905L26.8077 19.7742L26.9401 19.7098L27.4821 19.4388L27.7309 19.3027L27.9734 19.1666L28.0798 19.1035L28.2815 18.9797L28.3595 18.9265L28.6552 18.7063L28.8668 18.5355L28.9757 18.4402L29.4224 18.038L29.6427 17.8178L30.0758 17.3711L30.2651 17.152L30.4495 16.9367L30.5312 16.8328L30.6858 16.6311L30.749 16.5383L31.1462 15.9629L30.7836 15.437L30.593 15.1821L30.4309 14.9828L30.3406 14.8764L29.9619 14.4445L29.7875 14.2688L29.5585 14.0337L29.436 13.905L29.389 13.8506L29.3024 13.7491L29.2715 13.7058L29.2183 13.6241L29.2034 13.5895L29.1712 13.4596L29.1923 13.3964L29.2578 13.269L29.3185 13.1861L29.4187 13.0636L29.4756 13.0227H29.5078M11.6925 15.2625L11.8002 15.2835L12.0179 15.3355L12.1343 15.3751L12.3731 15.4642L12.5092 15.5236L13.0698 15.7463L13.2257 15.7983L13.2851 15.8144L13.3903 15.8391H13.4162L13.5103 15.8503L13.5412 15.8701V15.8849L13.5313 15.9171L13.5128 15.9394L13.4633 15.9839L13.4249 16.0111L13.3383 16.0693L13.2826 16.1015L13.1613 16.1683L13.0871 16.2054L12.9312 16.2821L12.8421 16.323L12.654 16.4071L12.5488 16.4517L11.8435 16.7833L11.6121 16.9033L11.5094 16.9602L11.3163 17.0691L11.2445 17.1149L10.8548 17.35L10.7545 17.4045L10.7199 17.4218L10.6617 17.4478H10.6518L10.5442 17.5146L10.4217 17.621L10.34 17.6965L10.168 17.8636L10.069 17.9626L9.86605 18.168L9.75963 18.2793L9.33024 18.7384L9.1471 18.9488L8.97138 19.153L8.90209 19.2384L8.77463 19.4005L8.73627 19.4574L8.61748 19.6282L8.56551 19.6888L8.46156 19.7964L8.40835 19.8311L8.3007 19.888L8.23882 19.9016L8.10642 19.9214H8.02475L7.74014 19.8917L7.67455 19.8707L7.65476 19.8583L7.62258 19.8323V19.8187L7.67084 19.7098L7.74633 19.5774L7.80201 19.4896L7.92328 19.3002L7.99505 19.1913L8.14849 18.9649L8.23264 18.8461L8.7338 18.1927L9.07904 17.8079L9.2696 17.6285L9.66806 17.2746L9.9007 17.0976L10.1395 16.9194L10.2707 16.8278L10.538 16.6422L10.6852 16.5445L10.9859 16.3415L11.1616 16.2166L11.2309 16.1646L11.3584 16.0681L11.3968 16.0334L11.4574 15.9765V15.9678L11.4153 15.9171L11.351 15.8639L11.3027 15.8292L11.0763 15.677L10.4068 15.2823L11.1022 15.2452L11.4698 15.2439M24.4851 16.4306L24.5432 16.4504L24.667 16.5024L24.7474 16.5445L24.9442 16.6534L25.0147 16.7078L25.0221 16.7338L25.0196 16.787L24.9937 16.8217L24.9256 16.8971L24.8687 16.9503L24.5742 17.1619L24.3069 17.3043L24.1448 17.376L23.8032 17.5159L23.6127 17.5827L23.2204 17.7138L23.0125 17.7745L22.1562 17.9985L21.738 18.0715L21.3234 18.137L21.1304 18.1568L20.753 18.1878L20.5859 18.189L19.7531 18.1903L19.9981 18.5924L20.1714 18.9043L20.2122 18.9884L20.2246 19.0193L20.2444 19.075V19.0874L20.2271 19.1357L20.1986 19.1517L20.1318 19.1765L20.0897 19.1752L19.7977 19.0948L19.5787 18.9686L19.4574 18.8708L19.2074 18.6493L19.0701 18.5046L18.7904 18.189L17.996 17.178L18.8411 17.282L20.2308 17.3587L21.1576 17.3216L21.6019 17.2622L22.0411 17.1954L22.2527 17.152L22.6698 17.058L22.8665 17.0023L23.2526 16.8835L23.4308 16.8155L23.7797 16.6719L23.9369 16.5915L24.193 16.4715L24.3217 16.4282L24.3774 16.4257M6.3208 11.0849L6.44826 11.1901L6.49776 11.2544L6.58685 11.3881L6.60294 11.45L6.61655 11.5663L6.58066 11.6009L6.47301 11.6591L6.32947 11.7234L6.23047 11.7643L6.0164 11.8521L5.89018 11.9016L5.62908 12.0043L5.48801 12.0575L4.2679 12.6181L3.50812 13.071L3.1604 13.3333L2.81763 13.6019L2.65429 13.7442L2.33504 14.035L2.18407 14.1884L1.8908 14.5002L1.75344 14.6636L1.48492 14.9952L1.36241 15.1684L0.799381 15.9555L1.1966 16.5333L1.3983 16.8068L1.56288 17.0172L1.65321 17.1261L1.83759 17.3463L1.92916 17.4515L2.11106 17.6557L2.42537 17.9935L2.56149 18.1457L2.61593 18.2076L2.71369 18.3239L2.74462 18.3635L2.79165 18.4291V18.4377L2.7669 18.5021L2.7273 18.564L2.63449 18.7038L2.5751 18.7805L2.35855 19.0614L1.79056 18.4712L1.22506 17.8487L0.872389 17.4268L0.720186 17.2251L0.431864 16.834L0.32297 16.6657L0.2215 16.5024L0.180665 16.4306L0.107656 16.292L0.0841454 16.2351L0.00989968 16.0074L0 15.8775L0.0210361 15.8045L0.08167 15.6473L0.142305 15.5409L0.210363 15.4283L0.252436 15.3615L0.342768 15.2192L0.398453 15.135L0.663264 14.7613L0.866202 14.5015L0.978808 14.3691L1.45275 13.8345L1.71261 13.5759L2.24099 13.0685L2.5058 12.847L2.76814 12.6317L2.89559 12.5364L3.14803 12.3533L3.26682 12.2766L3.61825 12.0637L3.87935 11.9189L4.01794 11.8459L4.5884 11.5613L4.86806 11.4376L5.14401 11.3188L5.27146 11.2668L5.52142 11.1703L5.63155 11.1332L5.84068 11.0651L5.92359 11.0453L6.07579 11.0131H6.12529M23.5941 14.4148L23.6387 14.4285L24.1807 14.6314L24.5606 14.8096L24.7548 14.9172L25.1483 15.1462L25.3476 15.2773L25.7435 15.5483L25.9403 15.6968L26.3301 16.0012L26.5182 16.1646L26.8906 16.4962L27.0664 16.6682L27.4104 17.0184L27.5688 17.1966L27.8732 17.5567L28.008 17.7386L28.1553 17.949L28.2085 18.0492L28.2135 18.0888L28.2085 18.1643L28.1862 18.2039L28.1293 18.2843L28.0823 18.3363L27.94 18.4761L27.8769 18.5107L27.7519 18.5541L27.6925 18.538L27.5712 18.4823L27.5069 18.4142L27.3757 18.2546L27.3015 18.1333L26.981 17.7052L26.7038 17.4008L26.5404 17.2436L26.1977 16.9293L26.0096 16.7734L25.6247 16.464L25.4218 16.3168L25.0122 16.0272L24.8056 15.8948L24.3923 15.6387L24.1918 15.5298L23.7958 15.3244L23.6114 15.2452L23.2526 15.1029L23.0942 15.062L22.791 14.9828L23.0868 14.6673L23.2353 14.5287L23.3293 14.4643L23.3739 14.4445L23.463 14.4148L23.5063 14.4124M4.27285 13.3927L4.34091 13.4237L4.37556 13.4608L4.45104 13.5511L4.4993 13.6204L4.61686 13.7788L4.71338 13.9013L4.76906 13.9694L5.00541 14.2527L5.13411 14.4L5.3952 14.6908L5.51524 14.8183L5.63279 14.942L5.686 14.994L5.78623 15.0942L5.82831 15.1326L6.05723 15.3219L6.25151 15.4679L6.36288 15.5471L6.84548 15.8775L7.10534 16.0421L7.62877 16.3638L7.86141 16.4925L8.08538 16.615L8.1819 16.6633L8.36257 16.7499L8.43186 16.7759L8.99242 16.9899L8.71895 17.2807L8.56922 17.4379L8.50363 17.4812L8.37618 17.5456L8.29822 17.5418L8.21531 17.5332L8.16582 17.5183L8.06063 17.4849L7.99629 17.4589L7.86017 17.3995L7.7785 17.3612L7.60278 17.277L7.4976 17.2251L6.57571 16.7053L5.98422 16.3044L5.7058 16.0804L5.16257 15.6201L4.91508 15.3714L4.43743 14.8653L4.22831 14.6005L4.00928 14.3121L3.88059 14.134L3.82861 14.0585L3.73581 13.9174L3.70735 13.8679L3.6628 13.7825V13.7664L3.75437 13.6377L3.88925 13.5326L3.97587 13.4868L4.15035 13.4039L4.23697 13.3828M23.7142 12.0427L23.8441 12.0637L23.9332 12.086L24.3304 12.1887L23.88 12.8569L23.6337 13.1935L23.4444 13.4286L23.3392 13.5499L22.8913 14.0399L22.6462 14.2787L22.1463 14.7452L21.8988 14.9482L21.6526 15.1462L21.5338 15.2328L21.2999 15.3986L21.191 15.4679L20.9237 15.6424L20.7666 15.7513L20.7035 15.7983L20.5896 15.8862L20.5538 15.9171L20.4981 15.9728V15.9839L20.5302 16.0371L20.5822 16.0891L20.6206 16.1213L20.8062 16.2611L20.9262 16.3341L21.2121 16.5568L21.269 16.6237L21.2826 16.6509L21.2987 16.7004L21.29 16.7165L21.243 16.7635L21.2022 16.7796L21.1094 16.808L21.0487 16.8142L20.9176 16.8217L20.8396 16.8192L20.6775 16.8093L20.5872 16.7969L20.206 16.7326L20.0006 16.6769L19.5848 16.5507L19.3856 16.4677L19.0738 16.3292L18.8882 16.2376L18.8114 16.1968L18.6729 16.1188L18.6283 16.0879L18.5553 16.0322L18.5503 16.0148L18.5937 15.9468L18.6766 15.8824L18.7397 15.8453L18.8795 15.7674L18.9661 15.7265L19.148 15.6436L19.2507 15.604L19.5935 15.4531L19.8509 15.3281L19.9833 15.2588L20.2469 15.1177L20.3694 15.0472L20.6082 14.9061L20.706 14.8418L20.9955 14.6326L21.2133 14.4594L21.3309 14.3592L21.8184 13.9261L22.0659 13.6848L22.5559 13.196L22.7675 12.9633L22.9705 12.7332L23.0583 12.628L23.2229 12.4226L23.286 12.3335L23.4308 12.1503L23.5149 12.0761L23.5607 12.0588L23.6548 12.0365M26.3326 6.58066L26.507 6.61531L26.6122 6.64006L26.8325 6.69822L26.9538 6.73287L27.2049 6.80835L27.3386 6.85166L27.8831 7.0348L28.1479 7.13627L28.6651 7.34292L28.8755 7.44315L29.8964 7.92699L29.8927 8.51106L29.863 9.08028L29.8196 9.47873L29.7862 9.68291L29.6241 10.5182L29.5016 10.9451L29.2319 11.7977L29.0623 12.2122L28.6998 13.0289L28.4906 13.4039L28.3471 13.6464L28.2592 13.7813L28.0736 14.0548L27.9734 14.1933L27.7705 14.4656L27.669 14.5906L27.4722 14.8294L27.3831 14.9234L26.7409 15.6127L26.1841 15.0187L26.5726 14.6561L26.7694 14.4483L26.9154 14.2725L26.9946 14.1711L27.32 13.7305L27.4846 13.4818L27.8076 12.9757L27.9474 12.7319L28.0823 12.4906L28.1392 12.378L28.2469 12.159L28.2889 12.0625L28.4238 11.716L28.5129 11.4586L28.5562 11.32L28.7233 10.7459L28.7938 10.4538L28.9237 9.87595L28.9646 9.62227L29.0017 9.37726L29.0128 9.26961L29.0302 9.06543V8.98376L29.019 8.66203L28.9893 8.51601L28.9559 8.46156L28.8705 8.36009L28.7988 8.31183L28.6292 8.2116L28.5043 8.14602L28.2271 8.01856L27.992 7.92328L27.8608 7.87378L27.3052 7.67579L27.0503 7.60155L26.7582 7.51493L26.5974 7.46419L26.533 7.44192L26.4142 7.39737L26.3672 7.37633L26.2831 7.3355L26.2509 7.31323L26.1494 7.22413L26.1259 7.16473L26.0925 7.03604L26.0838 6.94447V6.67223L26.095 6.60789L26.1049 6.58933L26.1247 6.55839H26.137M11.8014 12.7604L11.8732 12.7765L11.9189 12.7926L12.0192 12.8334L12.0811 12.8631L12.2122 12.9275L12.2902 12.9683L12.4746 13.1019L12.6317 13.2405L12.7208 13.3271L13.097 13.7132L13.2801 13.9236L13.4596 14.1315L13.5387 14.2305L13.6885 14.4198L13.7454 14.5002L13.8481 14.65L13.8741 14.7032L13.9087 14.791L13.8951 14.8046L13.8073 14.8158L13.6897 14.8096L13.608 14.8022L13.4311 14.7824L13.3271 14.7675L13.1118 14.7353L12.9955 14.7143L12.0105 14.619L11.3138 14.6215L10.9587 14.6549L10.2459 14.7428L9.89698 14.817L9.20526 14.9865L8.88105 15.0991L8.58654 15.2019L8.1819 15.3442L8.06682 15.3838L7.85275 15.4592L7.77479 15.4865L7.64238 15.5323L7.61516 15.5422L7.39613 15.5211L7.21671 15.4419L7.13875 15.3776L7.02861 15.2798L6.97912 15.2204L6.96674 15.1932L6.95189 15.1387L6.95932 15.1115L6.98283 15.0571L7.01129 15.0286L7.08059 14.9705L7.13256 14.9383L7.24888 14.8702L7.32684 14.8319L7.49513 14.7527L7.60155 14.7056L7.828 14.6079L7.96411 14.551L8.49497 14.3555L8.88105 14.2354L9.08151 14.1822L9.48492 14.082L9.68415 14.0399L10.0789 13.9619L10.2645 13.9322L10.6246 13.8815L10.783 13.8667L11.0824 13.8469L11.2012 13.8493L11.4153 13.8642L11.4809 13.8865L11.5391 13.9112L11.5564 13.9273L11.5824 13.9619V13.983L11.6133 14.0882L11.6603 14.108L11.6925 14.0956L11.7643 14.056L11.8051 14.0139L11.888 13.9174L11.9301 13.8506L12.0043 13.7021L12.0229 13.6118L12.0167 13.5635L11.9932 13.4608L11.9635 13.3977L11.8942 13.2603L11.841 13.17L11.7531 13.0091L11.7148 12.9225L11.7049 12.8891L11.6913 12.8285L11.695 12.8087L11.7098 12.7728L11.7271 12.7654L11.7692 12.7555M21.1836 8.56303L21.2257 8.57912L21.2405 8.59892L21.2665 8.6447L21.2739 8.67935L21.2851 8.75855V8.92684L21.2814 8.99984L21.2727 9.15576L21.2665 9.24981L21.1514 10.1135L21.0227 10.7322L20.9374 11.0428L20.753 11.6616L20.6466 11.9511L20.4238 12.5129L20.3026 12.7517L20.1355 13.0933L20.0377 13.3036L19.9994 13.3927L19.9288 13.5573L19.9066 13.6155L19.8732 13.7145V13.733L19.9152 13.7825L19.9796 13.811L20.0278 13.8234L20.2543 13.8617L20.3991 13.863L20.925 13.8654L20.4944 14.223L20.258 14.3913L20.0947 14.4817L20.0056 14.5176L19.8212 14.5807L19.7185 14.6054L19.5032 14.6475L19.3807 14.6623L18.9934 14.7118L18.663 14.7626L18.5974 14.7737L18.4811 14.7947L18.4464 14.8034L18.2991 14.8282L18.2237 14.8306L18.1989 14.822L18.1568 14.8009L18.1482 14.7799L18.1383 14.7329L18.1457 14.6982L18.1705 14.6227L18.194 14.5732L18.2521 14.4668L18.2942 14.4012L18.387 14.2614L18.4464 14.1785L18.5739 14.0028L18.6506 13.9013L19.3349 12.8742L19.7111 12.1701L19.8596 11.8088L20.1305 11.0787L20.2271 10.7026L20.3929 9.94277L20.4374 9.55174L20.4919 9.16937L20.5327 8.98747L20.5612 8.92436L20.6218 8.81299L20.6651 8.77339L20.7579 8.7041L20.821 8.67564L20.9782 8.60758L21.0636 8.57541L21.097 8.56798L21.1601 8.55932M16.8823 6.99149L16.9553 7.09049L16.9974 7.16226L17.0877 7.32312L17.1372 7.42088L17.2374 7.6263L17.2894 7.74138L17.501 8.2314L17.5963 8.48755L17.777 8.99737L17.8364 9.21887L17.9193 9.59258L17.9737 9.89575L17.9972 10.0616L18.0442 10.3981L18.0628 10.5652L18.0962 10.8956L18.1061 11.0441L18.1383 11.4648L18.1643 11.7111L18.1766 11.8088L18.2039 11.9858L18.2162 12.0415L18.2398 12.1256H18.2509L18.309 12.107L18.3709 12.0773L18.4105 12.0551L18.5899 11.9511L18.6902 11.8855L18.8548 11.7841L18.9476 11.737L18.9847 11.7234L19.0515 11.7024H19.0763L19.1208 11.7098L19.1332 11.7234L19.153 11.7568L19.1542 11.7841L19.1505 11.8459L19.1394 11.888L19.1121 11.9771L19.0899 12.0328L19.0404 12.1503L19.0057 12.2196L18.9216 12.3657L18.8535 12.4548L18.7026 12.6391L18.6085 12.7394L18.4093 12.9423L18.2991 13.045L18.0715 13.2467L17.9527 13.3408L17.1248 13.9978L17.23 13.217L17.3352 11.9016L17.3228 11.0639L17.2758 10.658L17.1545 9.85491L17.0518 9.46017L16.8179 8.6744L16.5606 8.03465L16.5086 7.89606L16.4875 7.8379L16.422 7.63124L16.4121 7.55576L16.4059 7.42212L16.422 7.36643L16.4677 7.25878L16.5073 7.19814L16.667 7.00882L16.7697 6.92962H16.8006M8.71647 10.6568L8.87363 10.6617L8.97138 10.6704L9.17804 10.6889L9.29559 10.7026L9.79923 10.7681L10.0752 10.8139L10.6357 10.9142L10.9018 10.9735L11.3126 11.0862L11.6282 11.1876L11.7915 11.2483L12.1219 11.3732L12.279 11.4388L12.5859 11.5725L12.7159 11.6368L13.0896 11.8138L13.3148 11.9115L13.4076 11.9474L13.5771 12.0105L13.634 12.0254L13.7268 12.0452L13.7367 12.0353L13.7652 11.966L13.7825 11.8868L13.7899 11.8348L13.8135 11.596L13.8196 10.9513L14.1612 11.3497L14.3357 11.5923L14.4272 11.7717L14.4643 11.8818L14.5336 12.1194L14.5646 12.2729L14.6252 12.6045L14.6561 12.8186L14.697 13.1069L14.7131 13.2368L14.744 13.4831L14.7551 13.5833L14.7725 13.7652L14.7762 13.8234L14.7799 13.9149L14.7749 13.9186L14.7069 13.8877L14.6141 13.8271L14.5485 13.78L14.4074 13.6761L14.3245 13.6118L14.1513 13.4769L14.0572 13.4014L13.5387 13.024L13.1613 12.7827L12.9609 12.6701L12.5525 12.4498L12.3409 12.3483L11.9152 12.1541L11.7012 12.0674L11.2718 11.9041L11.0602 11.8348L10.6407 11.7073L10.4402 11.6591L10.0442 11.5725L9.85862 11.5477L9.49977 11.5081H9.3389L9.09018 11.4945L8.96643 11.4673L8.91817 11.4413L8.83032 11.3782L8.79196 11.3299L8.71771 11.2198L8.67811 11.1431L8.54447 10.8609L8.51353 10.7842L8.50363 10.7558L8.48879 10.705V10.6939L8.54818 10.6642L8.6447 10.6555M7.02985 7.87254L7.12142 7.9109L7.15112 7.95793L7.20186 8.07548L7.22165 8.17819L7.24022 8.28832L7.25012 8.35762L7.26991 8.50611L7.28105 8.59521L7.48523 9.6792L7.68817 10.3783L7.82428 10.7174L8.11756 11.3906L8.29822 11.7172L8.6843 12.3669L8.91199 12.6837L9.04687 12.8742L9.11988 12.9794L9.1471 13.024L9.23867 13.1774L9.25476 13.2294L9.26713 13.321L9.24857 13.3556L9.19536 13.4212L9.1471 13.4571L8.99242 13.5598L8.9256 13.5808L8.79443 13.6031L8.73008 13.5796L8.59892 13.5115L8.52343 13.4398L8.36504 13.2715L8.26729 13.1477L7.94432 12.6874L7.73271 12.3372L7.63125 12.1466L7.43078 11.7544L7.33797 11.549L7.15483 11.1307L7.07193 10.9179L6.91353 10.4897L6.84424 10.2781L6.71554 9.85615L6.66357 9.65197L6.57077 9.25104L6.53983 9.06419L6.48786 8.70039L6.48043 8.53828L6.44702 7.8577H6.81825M12.2493 7.7191L12.3446 7.75128L12.4102 7.78716L12.5562 7.87502L12.6552 7.9406L13.4719 8.54076L13.9793 8.97633L14.2131 9.21021L14.6673 9.68786L14.8727 9.94153L15.2699 10.46L15.4456 10.7322L15.6436 11.0329L15.7636 11.2099L15.8131 11.2804L15.9035 11.4079L15.9344 11.4475L15.9839 11.5081H15.9901L16.026 11.4685L16.0681 11.4066L16.094 11.3609L16.2165 11.1456L16.2871 11.0082L16.3873 10.8288L16.4504 10.736L16.4776 10.7026L16.5841 10.6011L16.6249 10.5949L16.7004 10.6135L16.7251 10.6592L16.7672 10.7768L16.7759 10.8659L16.7845 11.0639L16.7746 11.1864L16.7462 11.4438L16.7177 11.5898L16.6509 11.8892L16.6039 12.0489L16.4974 12.3706L16.4282 12.5327L16.3118 12.8099L16.2648 12.9213L16.1757 13.1254L16.1398 13.1997L16.0718 13.3309L16.0421 13.3692L15.9864 13.4286L15.9592 13.4311L15.9072 13.4187L15.88 13.3865L15.8243 13.3049L15.7933 13.2381L15.7253 13.0858L15.6857 12.9844L15.5991 12.7654L15.5459 12.6292L15.3033 12.0959L15.1103 11.7321L14.9989 11.549L14.5188 10.8164L14.2391 10.4674L13.9545 10.1222L13.8048 9.95885L13.5041 9.63836L13.3494 9.48863L13.0376 9.20031L12.8817 9.07038L12.5674 8.82289L12.4114 8.71771L12.1355 8.49126L12.0167 8.344L11.9895 8.271L11.9548 8.12251L11.9684 8.04579L12.0167 7.88863L12.0699 7.80449L12.1454 7.72653L12.2073 7.7092M23.5459 10.6828L23.7698 10.6976L24.6843 10.7904L25.1446 10.8758L25.6012 10.9661L25.8227 11.0206L26.2583 11.1332L26.4637 11.1963L26.8609 11.3275L27.0404 11.3992L27.3844 11.5452L27.5304 11.6244L27.6727 11.7111L27.7234 11.7643L27.7284 11.7977L27.7247 11.8719L27.7036 11.9251L27.6492 12.0452L27.6046 12.1318L27.5019 12.3224L27.4623 12.3879L27.4265 12.4461L27.4128 12.4634L27.3918 12.4894L27.3869 12.4882L27.3275 12.4609L27.2445 12.4213L27.1864 12.3941L26.9834 12.2976L26.8263 12.2221L26.7409 12.1813L25.918 11.8583L25.3327 11.6974L25.0159 11.6442L24.3663 11.5551L24.0136 11.5366L23.2885 11.5168L22.8925 11.5316L22.4087 11.549L22.1488 11.5551H22.0461L21.8592 11.5514L21.7887 11.5452L21.665 11.5279L21.6229 11.5131L21.5511 11.4772L21.5313 11.4524L21.5016 11.3968L21.5004 11.3596L21.5029 11.2792L21.514 11.2285L21.54 11.1196L21.5573 11.054L21.6254 10.9104L21.7046 10.8411L21.7739 10.8164L21.9335 10.7718L22.0572 10.7533L22.1884 10.736L22.2676 10.7261L22.4346 10.7087L22.5324 10.7001L23.1214 10.6741M7.76241 6.44455L8.01485 6.46063L8.15097 6.47301L8.70905 6.52993L8.97757 6.56705L9.24362 6.60665L9.36489 6.62645L9.59876 6.66852L9.69899 6.68956L9.88461 6.73163L9.95267 6.75143L10.0739 6.79103L10.1036 6.80959L10.1791 6.87394L10.2051 6.92467L10.2063 6.95684L10.2014 7.02738L10.1865 7.0744L10.1482 7.17587L10.1185 7.24269L10.0282 7.40975L9.96876 7.48028L9.93411 7.4976L9.85862 7.52235L9.80913 7.51988L9.70147 7.50626L9.6297 7.4877L8.92065 7.34787L8.4232 7.28724L8.16582 7.27239L7.64486 7.25383L7.37881 7.26125L6.84424 7.28353L6.57571 7.30951L6.03743 7.37262L5.77015 7.41964L5.23805 7.52235L4.97819 7.58794L4.46094 7.729L4.21222 7.81315L3.72096 7.99257L2.84238 8.37989L2.93766 9.35623L3.0577 10.1977L3.10967 10.46L3.13689 10.5701L3.18886 10.7768L3.21485 10.8473L3.30642 11.1307L3.33612 11.2619L3.33488 11.3089L3.32003 11.3943L3.29652 11.4302L3.23712 11.5007L3.18886 11.5403L3.06512 11.643L3.00201 11.6888L2.88198 11.7742L2.84362 11.7964L2.79165 11.7977L2.75329 11.7729L2.73349 11.7494L2.65182 11.6232L2.60851 11.5217L2.52189 11.2953L2.47734 11.153L2.39072 10.8498L2.34988 10.679L2.1952 9.95019L2.142 9.5703L2.09374 9.19288L2.07889 9.01222L2.05537 8.65955V8.50116L2.05414 7.90719L2.99211 7.46172L3.76922 7.1437L4.00062 7.06821L4.0959 7.0447L4.2679 7.00634L4.32235 7.00387L4.63542 6.95313L4.72452 6.9222L4.75916 6.90363L4.82104 6.86651L4.83836 6.84671L4.95344 6.77865L5.08461 6.73163L5.17247 6.70936L5.36179 6.66233L5.47316 6.64006L5.7058 6.59551L5.83325 6.57572L6.36783 6.49899L6.64254 6.47425L7.18824 6.43465H7.42459M11.8398 4.28152L11.9635 4.30998L12.4152 4.46713L12.1268 5.17247L11.8002 6.10054L11.6405 6.71307L11.5886 7.02614L11.5032 7.65847L11.4858 7.99381L11.4685 8.67564L11.4957 9.35128L11.5007 9.47749L11.5081 9.71137L11.5094 9.80541L11.5106 9.97742L11.5081 10.0442L11.5019 10.1643L11.4957 10.2076L11.4809 10.2843L11.4685 10.3103L11.4425 10.3536L11.4252 10.366L11.3435 10.3932L11.2817 10.392L11.0961 10.3821L10.9946 10.3635L10.9525 10.3449L10.8758 10.3004L10.8449 10.2657L10.7892 10.1878L10.7681 10.1321L10.731 10.0108L10.7174 9.92916L10.6951 9.75468L10.6877 9.64331L10.6766 9.40572L10.6729 9.25971L10.6691 8.95035L10.6679 8.76473L10.7087 7.67208L10.7793 6.9952L10.8387 6.67842L10.9723 6.05599L11.0639 5.76025L11.2643 5.17618L11.3893 4.89157L11.4883 4.67254L11.5428 4.55375L11.5675 4.50796L11.6554 4.35576L11.6974 4.32111L11.7841 4.27533M24.5061 2.99087L24.8291 3.76303L25.0159 4.28894L25.0939 4.55499L25.2411 5.08708L25.3005 5.35437L25.407 5.88894L25.4453 6.15375L25.5121 6.68337L25.5295 6.94323L25.553 7.46048L25.5493 7.71168L25.5307 8.21036L25.5047 8.45042L25.4428 8.92436L25.3946 9.14834L25.3389 9.3983L25.3104 9.51214L25.2535 9.73117L25.2275 9.8215L25.1768 9.98732L25.1558 10.043L25.1162 10.1346L25.1038 10.1457L24.9503 10.1853L24.7981 10.1865L24.7177 10.1742L24.5667 10.1358L24.5049 10.0987L24.49 10.0677L24.4702 9.99598L24.4739 9.94277L24.4888 9.82026L24.5061 9.73488L24.5234 9.62475L24.5358 9.52328L24.5432 9.46017L24.5692 9.17927L24.5828 9.00356L24.6101 8.63233L24.6224 8.42691L24.6459 8.00866L24.6558 7.79582L24.6719 7.37633L24.6781 7.12514L24.6793 7.01129L24.6781 6.58561L24.6682 6.40495L24.641 6.06218L24.6175 5.90626L24.563 5.60062L24.5234 5.4447L24.2846 4.61933L24.094 4.06497L23.9988 3.81995L23.9035 3.5836L23.8577 3.47966L23.7686 3.28291L23.729 3.20495L23.6523 3.06264L23.6201 3.01562L23.5595 2.94014L23.5372 2.93148L23.4073 2.91787L23.2674 2.9191L23.1759 2.92405L22.9804 2.9389L22.8678 2.95004L22.6339 2.97479L22.5089 2.98964L21.9916 3.06017L21.7417 3.10348L21.4967 3.14679L21.3853 3.1703L21.17 3.21609L21.0797 3.23836L20.7567 3.31261L20.6082 3.3324L20.5562 3.32622L20.4634 3.30271L20.4251 3.27301L20.352 3.20248L20.31 3.14803L20.1937 2.94261L20.1553 2.81887L20.1664 2.78422L20.2543 2.69884L20.3731 2.63697L20.4572 2.6048L20.6428 2.54045L20.7555 2.50704L20.993 2.44269L21.1267 2.41176L21.6984 2.29173L22.009 2.2447L22.6376 2.16179L22.9358 2.14199L24.0792 2.06775M23.9777 6.46558L24.0656 6.50642L24.0891 6.54849L24.1299 6.64872L24.1485 6.72545L24.1844 6.98036L24.177 7.12142L24.1584 7.15236L24.0643 7.20186L23.9431 7.23774L23.8602 7.25507L23.6807 7.28848L23.5756 7.30333L23.3578 7.33302L23.2415 7.34292L22.2577 7.50874L21.5969 7.69312L21.2702 7.81933L20.6193 8.09528L20.3026 8.26605L19.6764 8.62738L19.3782 8.83774L19.1876 8.97262L19.1084 9.02707L18.9624 9.12854L18.9043 9.16814L18.7954 9.23867L18.7533 9.26342L18.6753 9.30673L18.6469 9.31787L18.5528 9.34138L18.5268 9.32034L18.4835 9.26094L18.4625 9.20773L18.4068 8.9949L18.3981 8.86125L18.4105 8.79691L18.4452 8.66821L18.4811 8.6051L18.5652 8.47765L18.6271 8.41206L18.7632 8.2809L18.8523 8.21284L19.0453 8.07301L19.1654 7.99876L19.4203 7.84656L19.5712 7.76365L19.8917 7.59412L20.0786 7.50131L20.8829 7.13998L21.4311 6.93333L21.7046 6.84795L22.2527 6.68956L22.52 6.6314L23.0497 6.52869L23.3021 6.50023L23.5508 6.47177L23.6857 6.4594L23.7401 6.45568L23.9233 6.45074M18.2967 3.74818L18.3462 3.79149L18.4452 3.89915L18.5009 3.98701L18.5838 4.14292L18.6023 4.22212L18.5899 4.258L18.5491 4.32854L18.5046 4.36937L18.3969 4.45476L18.3152 4.51292L18.1049 4.67749L17.9118 4.84083L17.798 4.9423L17.3067 5.38407L17.0592 5.62042L16.5791 6.10425L16.323 6.4L16.2104 6.55468L15.9938 6.87765L15.8837 7.07192L15.7723 7.27363L15.7129 7.38623L15.5929 7.62134L15.5261 7.75499L15.3553 8.09776L15.2773 8.2512L15.1301 8.54199L15.0707 8.65708L14.9618 8.86744L14.9259 8.93179L14.895 8.98994L14.8851 9.00727L14.869 9.03326H14.8665L14.8059 9.00727L14.7564 8.96644L14.7292 8.93674L14.6166 8.79938L14.5633 8.71523L14.4631 8.54323L14.4322 8.46651L14.3851 8.32668L14.3975 8.2908L14.6141 7.74014L14.7972 7.36025L14.9061 7.16721L15.1338 6.77865L15.2625 6.58438L15.5273 6.1983L15.6721 6.00773L15.9678 5.63155L16.125 5.44965L16.4442 5.09203L16.6113 4.92374L16.9466 4.59582L17.1186 4.44486L17.4651 4.15406L17.6384 4.02537L17.9626 3.80882L18.1222 3.73333L18.1828 3.73086M16.1584 0.0631093L16.3737 0.163341L16.4999 0.238824L16.7647 0.40464L16.9108 0.506109L17.209 0.723898L17.3649 0.846403L18.0009 1.37479L18.3041 1.66311L18.6011 1.9539L18.7372 2.09869L18.9995 2.38824L19.1121 2.52684L19.6356 3.24084L19.9647 3.75561L20.1132 4.02042L20.3954 4.55251L20.5129 4.81237L20.7295 5.32343L20.8755 5.78128L20.9126 5.90131L20.925 5.95081L20.9633 6.1191L20.9596 6.17479L20.9361 6.27378L20.9002 6.31585L20.8124 6.4L20.7431 6.45692L20.5847 6.57695L20.5228 6.61284L20.4077 6.66852L20.3669 6.67223L20.2951 6.66233L20.2753 6.63387L20.2444 6.55963V6.49776L20.2147 6.31338L20.1677 6.14385L20.1318 6.04238L20.0551 5.82707L20.0068 5.70704L19.9053 5.45955L19.8472 5.32962L19.6009 4.79505L19.4673 4.53643L19.3324 4.28152L19.2656 4.16396L19.1319 3.93504L19.0688 3.83604L18.7372 3.37077L18.4736 3.04161L18.3288 2.87579L17.7138 2.20758L17.3995 1.90936L17.0865 1.62104L16.938 1.49482L16.6496 1.25847L16.5197 1.16442L16.2735 0.99737L16.1732 0.945398L16.078 0.899614L16.0371 0.886002L15.9604 0.866203H15.9295L15.7921 0.929311L15.6387 1.02831L15.3318 1.25352L14.9766 1.53318L14.8541 1.63341L14.6091 1.83511L14.494 1.93411L14.2701 2.12962L14.1748 2.21748L13.9966 2.38329L13.9335 2.44888L13.8271 2.56644L13.8085 2.59984L13.733 2.71245L13.6786 2.75452L13.6439 2.76071L13.5672 2.76319L13.514 2.74957L13.3964 2.71493L13.316 2.68523L13.0524 2.54292L12.9918 2.49095L12.9732 2.4662L12.9435 2.41794V2.39814L12.972 2.31895L13.019 2.24841L13.0549 2.20387L13.2282 2.00959L13.3519 1.8908L13.6217 1.63836L13.78 1.50101L14.108 1.22011L14.2812 1.08028L14.6314 0.803093L14.8009 0.675638L15.135 0.430627L15.2835 0.330394L15.5644 0.147255L15.6733 0.090333L15.7748 0.0383601L15.8144 0.0235115L15.8886 0H15.9121M9.03078 2.14818L9.92421 2.25337L10.5206 2.36226L10.8139 2.4365L11.3992 2.59613L11.6851 2.69265L12.2506 2.89683L12.5228 3.01562L13.0599 3.26187L13.3135 3.39923L13.8122 3.6826L14.0424 3.83728L14.4928 4.15406L14.697 4.32359L15.0892 4.66883L15.26 4.85197L15.4085 5.01903L15.4592 5.1007L15.4617 5.13782L15.4518 5.2133L15.4246 5.26032L15.3565 5.36303L15.3009 5.43604L15.0744 5.73674L14.3579 5.09822L13.8469 4.68616L13.4781 4.42877L13.2801 4.30874L12.8767 4.0761L12.6639 3.96968L12.2283 3.76303L12.0006 3.67022L11.5391 3.49203L11.299 3.41284L10.8139 3.26311L10.5627 3.19876L10.0578 3.07997L9.79799 3.03171L9.27579 2.94385L8.35514 2.83619L8.04702 3.53411L7.90967 3.86945L7.81191 4.13055L7.76365 4.2679L7.66837 4.54633L7.62629 4.67997L7.54462 4.94107L7.51369 5.05491L7.46419 5.23805L7.44192 5.31477L7.39984 5.45584L7.38005 5.514L7.3058 5.70828L7.26496 5.7652L7.17711 5.85429L7.11771 5.87657L6.98654 5.9075L6.8925 5.9174L6.66357 5.93225L6.57448 5.91988L6.55468 5.89265L6.53117 5.82212L6.53612 5.75654L6.55715 5.60186L6.57819 5.4843L6.7205 4.87672L6.85661 4.42135L6.94076 4.18376L7.11647 3.70487L7.21299 3.47223L7.41346 3.01562L7.5174 2.81021L7.89111 2.06899M16.8786 0.774633L16.7994 0.812993L16.7635 0.846403L16.6992 0.92065L16.6843 0.966434L16.6756 1.04192L16.7016 1.05429L16.7709 1.06172L16.8316 1.03821L16.9689 0.950347L17.0271 0.876102V0.842691L16.9825 0.767208L16.9182 0.759783L16.8786 0.774633Z" fill="white"/>
<path d="M14.8875 30.6005L14.9234 30.6883V30.7217L14.8875 30.7762L14.7997 30.8121H14.765L14.7118 30.7762L14.6896 30.7527L14.6759 30.6883V30.6537L14.7118 30.6005L14.7997 30.5646H14.8331M10.2645 13.9322L10.0789 13.9619L9.68415 14.0399L9.48492 14.082L9.08151 14.1822L8.88105 14.2354L8.6348 14.3121L8.74988 14.2713L9.31415 14.1129L9.6 14.0523L10.1717 13.9434L10.3004 13.9273M11.9301 13.8506L11.888 13.9174L11.8051 14.0139L11.7643 14.056L11.6925 14.0956L11.6603 14.108L11.6133 14.0882L11.5824 13.983V13.9619L11.5564 13.9273L11.5391 13.9112L11.4809 13.8865L11.4153 13.8642L11.2965 13.8568L11.5007 13.8493L11.6752 13.8333L11.7482 13.8221L11.8831 13.7961L11.9301 13.7813L11.9746 13.7627M11.9635 13.3977L11.9932 13.4608L12.0167 13.5635L12.0229 13.6118V13.613L12.0155 13.566L11.9994 13.5152L11.9227 13.3148M11.8435 13.1749L11.8868 13.2467ZM12.2122 12.9275L12.1244 12.8841ZM12.0811 12.8619V12.8631L12.0613 12.8532M12.0192 12.8334L11.9759 12.8161ZM11.8719 12.7765L11.8682 12.7753ZM2.05537 8.65955L2.07889 9.01222L2.09374 9.19288L2.142 9.5703L2.1952 9.95019L2.30781 10.4786L2.1952 9.95267L2.142 9.57401L2.09374 9.19783L2.07889 9.01841L2.05537 8.66697V8.50858M2.57262 7.66094L2.58623 7.65476L2.66048 7.6164L2.91292 7.49884M6.36783 6.49899L5.83325 6.57572L5.7058 6.59551L5.47316 6.64006L5.36179 6.66233L5.17247 6.70936L5.08461 6.73163L4.95344 6.77865L4.83836 6.84671L4.82104 6.86651L4.75916 6.90363L4.72452 6.9222L4.63542 6.95313L4.32235 7.00387L4.2679 7.00634L4.0959 7.0447L4.00062 7.06821L3.76922 7.1437L3.0082 7.45553L3.43016 7.26001L3.94493 7.0546L4.20356 6.96922L4.72204 6.80711L4.98314 6.74153L5.50534 6.62274L5.77015 6.57943L6.29853 6.50394L6.52251 6.48538M8.74246 6.52869L9.02212 6.57077L9.41686 6.63264L9.63341 6.671L9.72003 6.68956L9.87966 6.72792L9.94029 6.74772H9.94153L9.88461 6.73163L9.69899 6.68956L9.59876 6.66852L9.36489 6.62645L9.24362 6.60665L8.97757 6.56705L8.70905 6.52993L8.28585 6.48662M16.9825 0.767208L17.0271 0.842691V0.876102L16.9689 0.950347L16.8316 1.03821L16.7709 1.06172L16.7016 1.05429L16.6756 1.04192L16.6843 0.966434L16.6992 0.92065L16.7635 0.846403L16.7994 0.812993L16.8786 0.774633L16.9182 0.759783L16.9825 0.767208Z" fill="white"/>
</g>
<defs>
<clipPath id="clip0_54_50">
<rect width="32" height="32" fill="white"/>
</clipPath>
</defs>
</svg>
